name E:\Dropbox\SEL\BOX\Experiment\240124_SUB1_PJH\c3d\XYZ\UpDown_TrcMot\15_10_trial2_D1_ExtLoadAPP1.mot
datacolumns 37
datarows 10
range 7.39 7.399
endheader

time	    ground_force1_vx	    ground_force1_vy	    ground_force1_vz	    ground_force1_px	    ground_force1_py	    ground_force1_pz	    ground_torque1_x	    ground_torque1_y	    ground_torque1_z	    ground_force2_vx	    ground_force2_vy	    ground_force2_vz	    ground_force2_px	    ground_force2_py	    ground_force2_pz	    ground_torque2_x	    ground_torque2_y	    ground_torque2_z	      hand_force3_vx	      hand_force3_vy	      hand_force3_vz	      hand_force3_px	      hand_force3_py	      hand_force3_pz	      hand_torque3_x	      hand_torque3_y	      hand_torque3_z	      hand_force4_vx	      hand_force4_vy	      hand_force4_vz	      hand_force4_px	      hand_force4_py	      hand_force4_pz	      hand_torque4_x	      hand_torque4_y	      hand_torque4_z	
7.39	         31.50527724	        392.69311678	          2.60318090	          0.22001870	          0.00000000	          0.19849021	          0.00000000	         -1.97940858	          0.00000000	        -38.91774478	        455.42391458	          3.88435978	          0.57559376	          0.00000000	          0.19371072	          0.00000000	          1.78356730	          0.00000000	        -16.67100059	        -69.91947173	         -8.36209914	          0.20202316	          1.01356212	         -0.17172919	          0.00209890	         -0.18835548	         -0.04956654	         13.37506944	        -66.53194191	        -12.84187560	          0.59585527	          1.01356212	         -0.17279171	         -0.00431141	          0.38573521	          0.10150584	
7.391	         31.55104921	        392.55826258	          2.68274509	          0.22000835	          0.00000000	          0.19865725	          0.00000000	         -1.98854072	          0.00000000	        -38.94126662	        455.36922485	          4.05231769	          0.57561394	          0.00000000	          0.19379243	          0.00000000	          1.79698077	          0.00000000	        -16.62051879	        -69.75652827	         -8.16341332	          0.20208390	          1.01368675	         -0.17090243	          0.00212090	         -0.18914001	         -0.04982018	         13.39002533	        -66.31341381	        -12.56552998	          0.59578006	          1.01368675	         -0.17195688	         -0.00433114	          0.38587007	          0.10159740	
7.392	         31.60092440	        392.43962020	          2.76745103	          0.21999838	          0.00000000	          0.19882484	          0.00000000	         -1.99730822	          0.00000000	        -38.96067373	        455.31886836	          4.22184650	          0.57563300	          0.00000000	          0.19387385	          0.00000000	          1.81085523	          0.00000000	        -16.57047010	        -69.59182965	         -7.96292845	          0.20214520	          1.01380960	         -0.17007873	          0.00214408	         -0.19005977	         -0.05010635	         13.40665725	        -66.09416630	        -12.28188750	          0.59570529	          1.01380960	         -0.17112102	         -0.00434957	          0.38593688	          0.10166699	
7.393	         31.65487812	        392.33767222	          2.85753359	          0.21998877	          0.00000000	          0.19899282	          0.00000000	         -2.00572624	          0.00000000	        -38.97603287	        455.27219635	          4.39280087	          0.57565097	          0.00000000	          0.19395490	          0.00000000	          1.82516625	          0.00000000	        -16.52082134	        -69.42537524	         -7.76070339	          0.20220717	          1.01393065	         -0.16925818	          0.00216848	         -0.19111676	         -0.05042563	         13.42479573	        -65.87439577	        -11.99115012	          0.59563102	          1.01393065	         -0.17028422	         -0.00436673	          0.38593765	          0.10171525	
7.394	         31.71287082	        392.25285195	          2.95321036	          0.21997952	          0.00000000	          0.19916105	          0.00000000	         -2.01381130	          0.00000000	        -38.98742267	        455.22854819	          4.56503258	          0.57566787	          0.00000000	          0.19403547	          0.00000000	          1.83988790	          0.00000000	        -16.47154075	        -69.25716790	         -7.55680384	          0.20226991	          1.01404989	         -0.16844083	          0.00219412	         -0.19231268	         -0.05077852	         13.44426525	        -65.65429826	        -11.69354882	          0.59555728	          1.01404989	         -0.16944654	         -0.00438266	          0.38587475	          0.10174290	
7.395	         31.77484816	        392.18554100	          3.05468072	          0.21997062	          0.00000000	          0.19932939	          0.00000000	         -2.02158118	          0.00000000	        -38.99493326	        455.18725317	          4.73839113	          0.57568374	          0.00000000	          0.19411548	          0.00000000	          1.85499281	          0.00000000	        -16.42259829	        -69.08721414	         -7.35130185	          0.20233352	          1.01416728	         -0.16762676	          0.00222103	         -0.19364900	         -0.05116546	         13.46488519	        -65.43406869	        -11.38934275	          0.59548412	          1.01416728	         -0.16860809	         -0.00439738	          0.38575086	          0.10175072	
7.396	         31.84074119	        392.13606728	          3.16212502	          0.21996206	          0.00000000	          0.19949771	          0.00000000	         -2.02905487	          0.00000000	        -38.99866579	        455.14763235	          4.91272411	          0.57569861	          0.00000000	          0.19419482	          0.00000000	          1.87045231	          0.00000000	        -16.37396588	        -68.91552434	         -7.14427539	          0.20239810	          1.01428282	         -0.16681604	          0.00224923	         -0.19512691	         -0.05158681	         13.48647078	        -65.21390011	        -11.07881831	          0.59541156	          1.01428282	         -0.16776898	         -0.00441095	          0.38556902	          0.10173962	
7.397	         31.91046656	        392.10470305	          3.27570383	          0.21995384	          0.00000000	          0.19966585	          0.00000000	         -2.03625243	          0.00000000	        -38.99873193	        455.10900041	          5.08787775	          0.57571251	          0.00000000	          0.19427341	          0.00000000	          1.88623648	          0.00000000	        -16.32561754	        -68.74211288	         -6.93580783	          0.20246375	          1.01439649	         -0.16600873	          0.00227875	         -0.19674734	         -0.05204287	         13.50883412	        -64.99398287	        -10.76228800	          0.59533963	          1.01439649	         -0.16692931	         -0.00442341	          0.38533263	          0.10171054	
7.398	         31.98392686	        392.09166333	          3.39555723	          0.21994593	          0.00000000	          0.19983370	          0.00000000	         -2.04319497	          0.00000000	        -38.99525340	        455.07066758	          5.26369737	          0.57572549	          0.00000000	          0.19435114	          0.00000000	          1.90231429	          0.00000000	        -16.27752968	        -68.56699836	         -6.72598743	          0.20253057	          1.01450826	         -0.16520490	          0.00230961	         -0.19851093	         -0.05253384	         13.53178522	        -64.77450396	        -10.44008919	          0.59526836	          1.01450826	         -0.16608922	         -0.00443481	          0.38504540	          0.10166456	
7.399	         32.06101092	        392.09710452	          3.52180420	          0.21993833	          0.00000000	          0.20000111	          0.00000000	         -2.04990448	          0.00000000	        -38.98836136	        455.03194148	          5.44002786	          0.57573758	          0.00000000	          0.19442793	          0.00000000	          1.91865372	          0.00000000	        -16.22968122	        -68.39020366	         -6.51490686	          0.20259866	          1.01461811	         -0.16440461	          0.00234181	         -0.20041806	         -0.05305988	         13.55513303	        -64.55564619	        -10.11258279	          0.59519776	          1.01461811	         -0.16524885	         -0.00444521	          0.38471139	          0.10160281	
